<svg id="Grupo_178" data-name="Grupo 178" xmlns="http://www.w3.org/2000/svg" xmlns:xlink="http://www.w3.org/1999/xlink" width="266.3" height="85.006" viewBox="0 0 266.3 85.006">
  <defs>
    <linearGradient id="linear-gradient" x1="0.236" y1="0.169" x2="0.728" y2="0.822" gradientUnits="objectBoundingBox">
      <stop offset="0" stop-color="#e96741"/>
      <stop offset="1" stop-color="#663bd9"/>
    </linearGradient>
  </defs>
  <path id="Trazado_187" data-name="Trazado 187" d="M41.988,70.744a2.983,2.983,0,0,0-3.3-2.44l-.039,0a26.757,26.757,0,0,1-3.067.243,5.579,5.579,0,0,1-4.128-1.305,5.491,5.491,0,0,1-1.275-3.977V31.877h5.551a6.653,6.653,0,0,0,6.653-6.653V16.152h-12.2V0h-15.1A6.092,6.092,0,0,0,8.986,6.092V16.152A8.986,8.986,0,0,0,0,25.138v6.739H8.986V65.151q0,9.716,5.586,14.785t16.394,5.07a58.464,58.464,0,0,0,6.315-.364,41.111,41.111,0,0,0,6.922-1.4Z" fill="#151515"/>
  <path id="Trazado_188" data-name="Trazado 188" d="M207.528,84.035H232l-25.21-38.269,24.239-29.614H210.459a7.318,7.318,0,0,0-5.736,2.774L187.687,40.434a.655.655,0,0,1-1.168-.407V0h-13.1a8.094,8.094,0,0,0-8.094,8.094v75.94h16.622a4.568,4.568,0,0,0,4.568-4.568V63.516L191,58.127Z" transform="translate(-75.228 0)" fill="#151515"/>
  <path id="Trazado_189" data-name="Trazado 189" d="M311.15,21.3a10.15,10.15,0,0,1-7.455-3.122,10.212,10.212,0,0,1-3.111-7.474A10.183,10.183,0,0,1,303.7,3.2a10.608,10.608,0,0,1,14.968,0,10.259,10.259,0,0,1,3.111,7.568,10.113,10.113,0,0,1-3.111,7.442,10.271,10.271,0,0,1-7.514,3.09" transform="translate(-136.771 -0.048)" fill="#151515"/>
  <path id="Trazado_190" data-name="Trazado 190" d="M311.14,50.327a16.963,16.963,0,0,1-9.282-2.632.821.821,0,0,0-1.273.662v46.47a10.761,10.761,0,0,0,10.209,10.842,10.6,10.6,0,0,0,10.981-10.588V48.374a.82.82,0,0,0-1.269-.664,17.254,17.254,0,0,1-9.367,2.618" transform="translate(-136.772 -21.642)" fill="#151515"/>
  <path id="Trazado_191" data-name="Trazado 191" d="M111.863,21.3a10.15,10.15,0,0,1-7.455-3.122A10.212,10.212,0,0,1,101.3,10.7a10.183,10.183,0,0,1,3.111-7.5,10.609,10.609,0,0,1,14.968,0,10.259,10.259,0,0,1,3.111,7.568,10.113,10.113,0,0,1-3.111,7.442,10.271,10.271,0,0,1-7.514,3.09" transform="translate(-46.092 -0.048)" fill="#151515"/>
  <path id="Trazado_192" data-name="Trazado 192" d="M111.264,50.327a16.963,16.963,0,0,1-9.282-2.632.821.821,0,0,0-1.273.662v46.47a10.761,10.761,0,0,0,10.209,10.842A10.6,10.6,0,0,0,121.9,95.081V48.374a.82.82,0,0,0-1.269-.664,17.254,17.254,0,0,1-9.367,2.618" transform="translate(-45.824 -21.642)" fill="#151515"/>
  <path id="Trazado_193" data-name="Trazado 193" d="M399.579,70.8a2.981,2.981,0,0,0-3.3-2.439l-.04,0a26.716,26.716,0,0,1-3.064.243,5.573,5.573,0,0,1-4.126-1.3,5.487,5.487,0,0,1-1.275-3.975V31.961h5.547a6.649,6.649,0,0,0,6.649-6.648V16.246h-12.2V.106H372.689A6.088,6.088,0,0,0,366.6,6.194V16.246a8.98,8.98,0,0,0-8.98,8.981v6.734h8.98V65.213q0,9.709,5.582,14.775t16.383,5.066a58.386,58.386,0,0,0,6.31-.364,41.039,41.039,0,0,0,6.917-1.4Z" transform="translate(-162.724 -0.048)" fill="#151515"/>
  <path id="Trazado_194" data-name="Trazado 194" d="M454.95,92.806a12.611,12.611,0,0,1-8.87-21.535A12.611,12.611,0,0,1,463.889,89.13a12.219,12.219,0,0,1-8.939,3.676" transform="translate(-201.291 -30.757)" fill="url(#linear-gradient)"/>
</svg>
