<svg xmlns="http://www.w3.org/2000/svg" width="24" height="24" viewBox="0 0 24 24">
  <path fill="#4285F4" d="M23.49 12.27c0-.85-.08-1.66-.23-2.43H12v4.61h6.43c-.28 1.49-1.14 2.75-2.44 3.59v2.99h3.94c2.3-2.12 3.56-5.24 3.56-8.76z"/>
  <path fill="#34A853" d="M12 24c3.24 0 5.95-1.07 7.94-2.91l-3.94-2.99c-1.1.74-2.51 1.18-4 1.18-3.07 0-5.66-2.07-6.59-4.85H1.35v3.04C3.31 21.5 7.33 24 12 24z"/>
  <path fill="#FBBC05" d="M5.41 14.43c-.25-.74-.39-1.53-.39-2.43s.14-1.69.39-2.43V6.53H1.35A11.97 11.97 0 0 0 0 12c0 1.93.46 3.76 1.35 5.47l4.06-3.04z"/>
  <path fill="#EA4335" d="M12 4.75c1.76 0 3.33.61 4.57 1.81l3.42-3.42C17.95 1.19 15.24 0 12 0 7.33 0 3.31 2.5 1.35 6.53l4.06 3.04C6.34 6.82 8.93 4.75 12 4.75z"/>
</svg>

